<?xml version="1.0" encoding="UTF-8"?>
<!DOCTYPE svg PUBLIC "-//W3C//DTD SVG 1.1//EN" "http://www.w3.org/Graphics/SVG/1.1/DTD/svg11.dtd">
<svg xmlns="http://www.w3.org/2000/svg" style="background: #F2F2F2" version="1.1" width="82px" height="82px" viewBox="0 0 82 82"><defs/><rect fill="#F2F2F2" width="100%" height="100%" x="0" y="0"/><g><g ><g ><g ><g transform="translate(0.5,0.5)"><rect x="30" y="50" width="20" height="20" fill="#111111" stroke="none" /></g></g><g ><g transform="translate(0.5,0.5)"><rect x="10" y="50" width="20" height="20" fill="#111111" stroke="none" /></g></g><g ><g transform="translate(0.5,0.5)"><rect x="50" y="50" width="20" height="20" fill="#111111" stroke="none" /></g></g><g ><g transform="translate(0.5,0.5)"><rect x="50" y="30" width="20" height="20" fill="#111111" stroke="none" /></g></g><g ><g transform="translate(0.5,0.5)"><rect x="30" y="10" width="20" height="20" fill="#111111" stroke="none" /></g></g><g ><g><path d="M 0 30 L 80 30" fill="none" stroke="#c9c9c9" stroke-width="0.5" stroke-miterlimit="10" stroke-dasharray="0.5 0.5" /></g></g><g ><g><path d="M 0 50 L 80 50" fill="none" stroke="#c9c9c9" stroke-width="0.5" stroke-miterlimit="10" stroke-dasharray="0.5 0.5" /></g></g><g ><g><path d="M 0 70 L 80 70" fill="none" stroke="#c9c9c9" stroke-width="0.5" stroke-miterlimit="10" stroke-dasharray="0.5 0.5" /></g></g><g ><g><path d="M 0 10 L 80 10" fill="none" stroke="#c9c9c9" stroke-width="0.5" stroke-miterlimit="10" stroke-dasharray="0.5 0.5" /></g></g><g ><g><path d="M 69.89 0 L 70 80" fill="none" stroke="#c9c9c9" stroke-width="0.5" stroke-miterlimit="10" stroke-dasharray="0.5 0.5" /></g></g><g ><g><path d="M 49.89 0 L 50 80" fill="none" stroke="#c9c9c9" stroke-width="0.5" stroke-miterlimit="10" stroke-dasharray="0.5 0.5" /></g></g><g ><g><path d="M 29.89 0 L 30 80" fill="none" stroke="#c9c9c9" stroke-width="0.5" stroke-miterlimit="10" stroke-dasharray="0.5 0.5" /></g></g><g ><g><path d="M 10 0 L 10 80" fill="none" stroke="#c9c9c9" stroke-width="0.5" stroke-miterlimit="10" stroke-dasharray="0.5 0.5" /></g></g></g></g></g></svg>