<?xml version="1.0" encoding="utf-8"?>
<!-- Generator: Adobe Illustrator 21.1.0, SVG Export Plug-In . SVG Version: 6.00 Build 0)  -->
<svg version="1.1" id="Icons" xmlns="http://www.w3.org/2000/svg" xmlns:xlink="http://www.w3.org/1999/xlink" x="0px" y="0px"
	 viewBox="0 0 48 48" style="enable-background:new 0 0 48 48;" xml:space="preserve">
<style type="text/css">
	.st0{opacity:0.15;fill:#45413C;}
	.st1{fill:#FFE500;}
	.st2{fill:#EBCB00;}
	.st3{fill:none;stroke:#45413C;stroke-linecap:round;stroke-linejoin:round;stroke-miterlimit:10;}
	.st4{fill:#FFAA54;}
	.st5{fill:#FF8A14;}
	.st6{fill:#FFB0CA;stroke:#45413C;stroke-linecap:round;stroke-linejoin:round;stroke-miterlimit:10;}
	.st7{fill:#FF87AF;stroke:#45413C;stroke-linecap:round;stroke-linejoin:round;stroke-miterlimit:10;}
	.st8{fill:#FFCC99;}
	.st9{fill:#FFFFFF;}
	.st10{fill:#F0F0F0;}
	.st11{fill:#BF8256;}
	.st12{fill:#915E3A;}
	.st13{fill:#DEA47A;}
	.st14{fill:#F0D5A8;}
	.st15{fill:#DEBB7E;}
	.st16{fill:#F7E5C6;}
	.st17{fill:#FF8A14;stroke:#45413C;stroke-linecap:round;stroke-linejoin:round;stroke-miterlimit:10;}
	.st18{fill:#FFF5E3;}
	.st19{fill:#FFF48C;}
	.st20{fill:#FFFACF;}
	.st21{fill:#FFFCE5;}
	.st22{fill:#FF87AF;}
	.st23{fill:#FFB0CA;}
	.st24{fill:#FFE500;stroke:#45413C;stroke-linecap:round;stroke-linejoin:round;stroke-miterlimit:10;}
	.st25{fill:#9CEB60;stroke:#45413C;stroke-linecap:round;stroke-linejoin:round;stroke-miterlimit:10;}
	.st26{fill:#FFFACF;stroke:#45413C;stroke-linecap:round;stroke-linejoin:round;stroke-miterlimit:10;}
	.st27{fill:#00F5BC;stroke:#45413C;stroke-linecap:round;stroke-linejoin:round;stroke-miterlimit:10;}
	.st28{fill:#BF8256;stroke:#45413C;stroke-linecap:round;stroke-linejoin:round;stroke-miterlimit:10;}
	.st29{fill:#FFE3CF;stroke:#45413C;stroke-linecap:round;stroke-linejoin:round;stroke-miterlimit:10;}
	.st30{fill:#FF6242;}
	.st31{fill:#FF866E;}
	.st32{fill:none;stroke:#E04122;stroke-linecap:round;stroke-linejoin:round;stroke-miterlimit:10;}
	.st33{fill:#FFFEF2;stroke:#45413C;stroke-linecap:round;stroke-linejoin:round;stroke-miterlimit:10;}
	.st34{fill:#FF6242;stroke:#45413C;stroke-linecap:round;stroke-linejoin:round;stroke-miterlimit:10;}
	.st35{fill:#FFA694;}
	.st36{fill:#FFFFFF;stroke:#45413C;stroke-linecap:round;stroke-linejoin:round;stroke-miterlimit:10;}
	.st37{fill:#FFFEF2;}
	.st38{fill:#FF6196;}
	.st39{fill:#B89558;}
	.st40{fill:none;stroke:#915E3A;stroke-linecap:round;stroke-linejoin:round;stroke-miterlimit:10;}
	.st41{fill:#DEBB7E;stroke:#45413C;stroke-linecap:round;stroke-linejoin:round;stroke-miterlimit:10;}
	.st42{fill:#6DD627;stroke:#45413C;stroke-linecap:round;stroke-linejoin:round;stroke-miterlimit:10;}
	.st43{fill:#E5F8FF;}
	.st44{fill:#E8F4FA;}
	.st45{fill:#E8F4FA;stroke:#45413C;stroke-linecap:round;stroke-linejoin:round;stroke-miterlimit:10;}
	.st46{fill:#FFCCDD;}
	.st47{fill:#E5F8FF;stroke:#45413C;stroke-linecap:round;stroke-linejoin:round;stroke-miterlimit:10;}
	.st48{fill:#00B8F0;stroke:#45413C;stroke-linecap:round;stroke-linejoin:round;stroke-miterlimit:10;}
	.st49{fill:#00B8F0;}
	.st50{fill:#4ACFFF;}
	.st51{fill:#E04122;}
	.st52{fill:#E04122;stroke:#45413C;stroke-linecap:round;stroke-linejoin:round;stroke-miterlimit:10;}
	.st53{fill:#87898C;}
	.st54{fill:#BDBEC0;}
	.st55{fill:#656769;}
	.st56{fill:#525252;}
	.st57{fill:#FFF48C;stroke:#45413C;stroke-linecap:round;stroke-linejoin:round;stroke-miterlimit:10;}
	.st58{fill:#6DD627;}
	.st59{fill:#EB6D00;}
	.st60{fill:#46B000;}
	.st61{fill:#80DDFF;}
	.st62{fill:#DAEDF7;}
	.st63{fill:#BF8DF2;stroke:#45413C;stroke-linecap:round;stroke-linejoin:round;stroke-miterlimit:10;}
	.st64{fill:#9F5AE5;stroke:#45413C;stroke-linecap:round;stroke-linejoin:round;stroke-miterlimit:10;}
	.st65{fill:#C8FFA1;}
	.st66{fill:#E4FFD1;}
	.st67{fill:#9CEB60;}
	.st68{fill:#E5FEFF;}
	.st69{fill:#B8ECFF;}
	.st70{fill:#E0E0E0;stroke:#45413C;stroke-linecap:round;stroke-linejoin:round;stroke-miterlimit:10;}
	.st71{fill:#E0E0E0;}
	.st72{fill:none;stroke:#4F4B45;stroke-linejoin:round;stroke-miterlimit:10;}
	.st73{fill:none;stroke:#4F4B45;stroke-linecap:round;stroke-linejoin:round;stroke-miterlimit:10;}
	.st74{fill:#E0366F;stroke:#45413C;stroke-linecap:round;stroke-linejoin:round;stroke-miterlimit:10;}
	.st75{fill:none;stroke:#45413C;stroke-miterlimit:10;}
	.st76{fill:#FF866E;stroke:#45413C;stroke-linecap:round;stroke-linejoin:round;stroke-miterlimit:10;}
	.st77{fill:#45413C;stroke:#45413C;stroke-linecap:round;stroke-linejoin:round;stroke-miterlimit:10;}
	.st78{fill:#9F5AE5;}
	.st79{fill:#803EC2;}
	.st80{fill:#803EC2;stroke:#45413C;stroke-linecap:round;stroke-linejoin:round;stroke-miterlimit:10;}
	.st81{fill:#BF8DF2;}
	.st82{fill:#FFAA54;stroke:#45413C;stroke-linecap:round;stroke-linejoin:round;stroke-miterlimit:10;}
	.st83{fill:none;stroke:#45413C;stroke-linejoin:round;stroke-miterlimit:10;}
	.st84{fill:#FFCCDD;stroke:#45413C;stroke-linecap:round;stroke-linejoin:round;stroke-miterlimit:10;}
	.st85{fill:#FF6196;stroke:#45413C;stroke-linecap:round;stroke-linejoin:round;stroke-miterlimit:10;}
	.st86{fill:#FFE5EE;}
	.st87{fill:#F7E5C6;stroke:#45413C;stroke-linecap:round;stroke-linejoin:round;stroke-miterlimit:10;}
	.st88{fill:#E5FFF9;}
	.st89{fill:none;stroke:#45413C;stroke-width:1.0064;stroke-linecap:round;stroke-linejoin:round;stroke-miterlimit:10;}
	.st90{fill:#4AEFF7;}
	.st91{fill:#A6FBFF;}
	.st92{fill:#E5FEFF;stroke:#45413C;stroke-linecap:round;stroke-linejoin:round;stroke-miterlimit:10;}
	.st93{fill:#46B000;stroke:#45413C;stroke-linecap:round;stroke-linejoin:round;stroke-miterlimit:10;}
	.st94{fill:#FFFFFF;stroke:#45413C;stroke-linejoin:round;stroke-miterlimit:10;}
	.st95{fill:#FFFFFF;stroke:#45413C;stroke-miterlimit:10;}
	.st96{fill:#009FD9;}
	.st97{fill:#00DFEB;}
	.st98{fill:#C0DCEB;stroke:#45413C;stroke-linecap:round;stroke-linejoin:round;stroke-miterlimit:10;}
	.st99{fill:#00DFEB;stroke:#45413C;stroke-linecap:round;stroke-linejoin:round;stroke-miterlimit:10;}
	.st100{fill:#FFE5EE;stroke:#45413C;stroke-linecap:round;stroke-linejoin:round;stroke-miterlimit:10;}
	.st101{fill:#8CA4B8;}
	.st102{fill:#ADC4D9;}
	.st103{fill:#656769;stroke:#45413C;stroke-linecap:round;stroke-linejoin:round;stroke-miterlimit:10;}
	.st104{fill:#F0F0F0;stroke:#45413C;stroke-linecap:round;stroke-linejoin:round;stroke-miterlimit:10;}
	.st105{fill:#C0DCEB;}
	.st106{fill:#45413C;}
	.st107{fill:#FFCABF;}
	.st108{fill:#87898C;stroke:#45413C;stroke-linecap:round;stroke-linejoin:round;stroke-miterlimit:10;}
	.st109{fill:#EBCB00;stroke:#45413C;stroke-linecap:round;stroke-linejoin:round;stroke-miterlimit:10;}
</style>
<g>
	<path id="XMLID_14091_" class="st16" d="M37.5,12.2c0,0-1.8-2-0.8-4.4c0.8-2.1,2.3-2.9,3.6-3.6C41.8,3.3,42,1.7,42,1.7
		s3.3,4.6,1.6,8.5c-1.6,3.7-4,2.8-4,2.8L37.5,12.2z"/>
	<path id="XMLID_14090_" class="st18" d="M40.4,4.1c-1.3,0.7-2.8,1.5-3.6,3.6c0.8-0.3,2-0.5,3.7,0.1c1.6,0.6,2.5,1.6,3,2.6
		c0-0.1,0.1-0.1,0.1-0.2C45.3,6.3,42,1.7,42,1.7S41.8,3.3,40.4,4.1z"/>
	<path id="XMLID_14089_" class="st3" d="M37.5,12.2c0,0-1.8-2-0.8-4.4c0.8-2.1,2.3-2.9,3.6-3.6C41.8,3.3,42,1.7,42,1.7
		s3.3,4.6,1.6,8.5c-1.6,3.7-4,2.8-4,2.8L37.5,12.2z"/>
	<path id="XMLID_14088_" class="st3" d="M39.3,12.7c0,0,1.3-0.8,2.3-3.4"/>
	<path id="XMLID_14087_" class="st3" d="M38.3,12.4c0,0-0.3-2,0.4-3.7"/>
	<ellipse id="XMLID_14086_" class="st0" cx="24" cy="45.5" rx="11.5" ry="1.5"/>
	<path id="XMLID_14083_" class="st14" d="M21,6.6c-9.7,0-17.5,4.7-17.5,13c0,0,0,0,0,0.1c0,2.9,3.2,4.6,5.7,3.2l3.1-1.7
		c1-0.6,2.1,0.6,1.5,1.5l-4.3,7c-1.1,1.7-0.4,4,1.4,4.9c2.5,1.2,5.5,2,8.6,2c9.7,0,17.5-6.7,17.5-15C37,13.3,30.7,6.6,21,6.6z
		 M18,33.1c-1.7,0-3-1-3-2.2c0-1.2,1.3-2.2,3-2.2s3,1,3,2.2C21,32.1,19.7,33.1,18,33.1z"/>
	<path id="XMLID_14082_" class="st16" d="M21,9.6c9,0,15.2,5.9,15.9,13.4c0-0.5,0.1-0.9,0.1-1.4c0-8.3-6.3-15-16-15
		s-17.5,4.7-17.5,13c0,0,0,0,0,0.1c0,0.4,0.1,0.7,0.2,1.1C4.8,13.6,12.1,9.6,21,9.6z"/>
	<path id="XMLID_14079_" class="st3" d="M21,6.6c-9.7,0-17.5,4.7-17.5,13c0,0,0,0,0,0.1c0,2.9,3.2,4.6,5.7,3.2l3.1-1.7
		c1-0.6,2.1,0.6,1.5,1.5l-4.3,7c-1.1,1.7-0.4,4,1.4,4.9c2.5,1.2,5.5,2,8.6,2c9.7,0,17.5-6.7,17.5-15C37,13.3,30.7,6.6,21,6.6z
		 M18,33.1c-1.7,0-3-1-3-2.2c0-1.2,1.3-2.2,3-2.2s3,1,3,2.2C21,32.1,19.7,33.1,18,33.1z"/>
	<ellipse id="XMLID_14078_" class="st30" cx="28.4" cy="27.4" rx="3.2" ry="2.2"/>
	<ellipse id="XMLID_14077_" class="st5" cx="29.8" cy="17.3" rx="2.8" ry="2.3"/>
	<ellipse id="XMLID_14076_" class="st58" cx="11.2" cy="14.4" rx="2.7" ry="2.2"/>
	<ellipse id="XMLID_14075_" class="st1" cx="21" cy="11.9" rx="2.9" ry="2.2"/>
	<path id="XMLID_14074_" class="st51" d="M28.4,26.5c1.4,0,2.6,0.7,3,1.6c0.1-0.2,0.2-0.4,0.2-0.7c0-1.2-1.4-2.2-3.1-2.2
		s-3.1,1-3.1,2.2c0,0.2,0.1,0.5,0.2,0.7C25.8,27.1,27,26.5,28.4,26.5z"/>
	<path id="XMLID_14073_" class="st59" d="M29.8,16.4c1.2,0,2.3,0.7,2.6,1.6c0.1-0.2,0.1-0.4,0.1-0.7c0-1.3-1.2-2.3-2.8-2.3
		s-2.8,1-2.8,2.3c0,0.2,0.1,0.5,0.1,0.7C27.5,17.1,28.5,16.4,29.8,16.4z"/>
	<path id="XMLID_14072_" class="st60" d="M11.2,13.5c1.2,0,2.2,0.7,2.6,1.6c0.1-0.2,0.1-0.4,0.1-0.7c0-1.2-1.2-2.2-2.7-2.2
		s-2.7,1-2.7,2.2c0,0.2,0.1,0.5,0.1,0.7C9,14.1,10,13.5,11.2,13.5z"/>
	<path id="XMLID_14071_" class="st2" d="M21,11c1.3,0,2.4,0.7,2.8,1.6c0.1-0.2,0.2-0.4,0.2-0.7c0-1.2-1.3-2.2-2.9-2.2
		c-1.6,0-2.9,1-2.9,2.2c0,0.2,0.1,0.5,0.2,0.7C18.6,11.6,19.6,11,21,11z"/>
	<ellipse id="XMLID_14070_" class="st3" cx="28.4" cy="27.4" rx="3.2" ry="2.2"/>
	<ellipse id="XMLID_14069_" class="st3" cx="29.8" cy="17.3" rx="2.8" ry="2.3"/>
	<ellipse id="XMLID_14068_" class="st3" cx="11.2" cy="14.4" rx="2.7" ry="2.2"/>
	<ellipse id="XMLID_14067_" class="st3" cx="21" cy="11.9" rx="2.9" ry="2.2"/>
	<path class="st50" d="M37.3,17.2c-1.1-0.3-2.3,0.2-2.7,1.2l-0.5,1.2c-1.5,3.5-2.8,7.1-3.6,10.9l-2.9,12.5c-0.2,0.8,0.3,1.7,1.1,1.9
		c0.8,0.3,1.7-0.2,2-0.9L35.4,32c1.4-3.6,2.5-7.2,3.2-11l0.2-1.3C39.1,18.6,38.4,17.5,37.3,17.2z"/>
	<path id="XMLID_14066_" class="st61" d="M29.4,44l2.9-12.5c0.9-3.7,2.1-7.4,3.6-10.9l0.5-1.2c0.4-0.9,1.3-1.4,2.2-1.3
		c-0.3-0.4-0.7-0.8-1.2-1c-1.1-0.3-2.3,0.2-2.7,1.2l-0.5,1.2c-1.5,3.5-2.8,7.1-3.6,10.9l-2.9,12.5c-0.2,0.8,0.3,1.7,1.1,1.9
		c0.2,0.1,0.5,0.1,0.7,0C29.3,44.6,29.3,44.3,29.4,44z"/>
	<path class="st3" d="M37.3,17.2c-1.1-0.3-2.3,0.2-2.7,1.2l-0.5,1.2c-1.5,3.5-2.8,7.1-3.6,10.9l-2.9,12.5c-0.2,0.8,0.3,1.7,1.1,1.9
		c0.8,0.3,1.7-0.2,2-0.9L35.4,32c1.4-3.6,2.5-7.2,3.2-11l0.2-1.3C39.1,18.6,38.4,17.5,37.3,17.2z"/>
	<path id="XMLID_14065_" class="st62" d="M38.5,19.6c0.3,0.1,0.6-0.1,0.6-0.4c0.1-0.9,0.2-2.4,0.5-3.3c0.2-0.8,0.7-1.5,1-2.1
		c0.2-0.4-0.1-0.8-0.6-1L37.6,12c-0.6-0.2-1.1,0.1-1.1,0.5c0,0.6-0.1,1.5-0.3,2.3c-0.3,0.9-1,2.3-1.5,3c-0.2,0.3,0,0.6,0.3,0.7
		L38.5,19.6z"/>
	<path id="XMLID_14064_" class="st44" d="M36.1,18.5c0.4-0.7,1.2-2.1,1.5-3c0.2-0.8,0.3-1.7,0.3-2.3c0-0.4,0.5-0.6,1.1-0.5l1.6,0.5
		c-0.1-0.2-0.3-0.4-0.6-0.5L37.6,12c-0.6-0.2-1.1,0.1-1.1,0.5c0,0.6-0.1,1.5-0.3,2.3c-0.3,0.9-1,2.3-1.5,3c-0.2,0.3,0,0.6,0.3,0.7
		l1.1,0.4C36.1,18.7,36.1,18.6,36.1,18.5z"/>
	<path id="XMLID_14063_" class="st3" d="M38.5,19.6c0.3,0.1,0.6-0.1,0.6-0.4c0.1-0.9,0.2-2.4,0.5-3.3c0.2-0.8,0.7-1.5,1-2.1
		c0.2-0.4-0.1-0.8-0.6-1L37.6,12c-0.6-0.2-1.1,0.1-1.1,0.5c0,0.6-0.1,1.5-0.3,2.3c-0.3,0.9-1,2.3-1.5,3c-0.2,0.3,0,0.6,0.3,0.7
		L38.5,19.6z"/>
</g>
</svg>
